<mxfile host="65bd71144e">
    <diagram id="SJ8IqZsmN56MAJa6noOm" name="design">
        <mxGraphModel dx="532" dy="-787" grid="1" gridSize="10" guides="1" tooltips="1" connect="1" arrows="1" fold="1" page="1" pageScale="1" pageWidth="850" pageHeight="1100" math="0" shadow="0">
            <root>
                <mxCell id="0"/>
                <mxCell id="1" parent="0"/>
                <mxCell id="2" value="" style="verticalLabelPosition=bottom;verticalAlign=top;html=1;shadow=0;dashed=0;strokeWidth=1;shape=mxgraph.android.phone2;strokeColor=#c0c0c0;" vertex="1" parent="1">
                    <mxGeometry x="150" y="1710" width="200" height="390" as="geometry"/>
                </mxCell>
                <mxCell id="3" value="" style="rounded=0;whiteSpace=wrap;html=1;fillColor=#0050ef;fontColor=#ffffff;strokeColor=#001DBC;" vertex="1" parent="1">
                    <mxGeometry x="161" y="1746" width="180" height="44" as="geometry"/>
                </mxCell>
                <mxCell id="4" value="" style="dashed=0;aspect=fixed;verticalLabelPosition=bottom;verticalAlign=top;align=center;shape=mxgraph.gmdl.chat;strokeColor=none;fillColor=#FFFFFF;shadow=0;sketch=0;" vertex="1" parent="1">
                    <mxGeometry x="170" y="1758" width="20" height="20" as="geometry"/>
                </mxCell>
                <mxCell id="5" value="&lt;font style=&quot;font-size: 20px;&quot;&gt;وحدات الإدخال&lt;/font&gt;" style="text;strokeColor=none;fillColor=none;html=1;fontSize=24;fontStyle=1;verticalAlign=middle;align=center;" vertex="1" parent="1">
                    <mxGeometry x="221" y="1748" width="120" height="40" as="geometry"/>
                </mxCell>
                <mxCell id="6" value="" style="rounded=0;whiteSpace=wrap;html=1;fontSize=20;fillColor=#FFFFFF;" vertex="1" parent="1">
                    <mxGeometry x="159.5" y="1790" width="181" height="270" as="geometry"/>
                </mxCell>
                <mxCell id="7" value="&lt;font style=&quot;font-size: 16px;&quot; color=&quot;#000000&quot;&gt;أهداف الوحدة&lt;/font&gt;" style="text;strokeColor=none;fillColor=none;html=1;fontSize=24;fontStyle=1;verticalAlign=middle;align=center;" vertex="1" parent="1">
                    <mxGeometry x="240.5" y="1800" width="100" height="20" as="geometry"/>
                </mxCell>
                <mxCell id="8" value="&lt;font color=&quot;#808080&quot; style=&quot;font-size: 14px; font-weight: normal;&quot;&gt;الهدف الاول&lt;/font&gt;" style="text;strokeColor=none;fillColor=none;html=1;fontSize=24;fontStyle=1;verticalAlign=middle;align=right;" vertex="1" parent="1">
                    <mxGeometry x="220" y="1830" width="110" height="20" as="geometry"/>
                </mxCell>
                <mxCell id="9" value="&lt;font color=&quot;#808080&quot; style=&quot;font-size: 14px; font-weight: normal;&quot;&gt;الهدف الثاني&lt;/font&gt;" style="text;strokeColor=none;fillColor=none;html=1;fontSize=24;fontStyle=1;verticalAlign=middle;align=right;" vertex="1" parent="1">
                    <mxGeometry x="220" y="1850" width="110" height="20" as="geometry"/>
                </mxCell>
                <mxCell id="10" value="&lt;font color=&quot;#808080&quot; style=&quot;font-size: 14px; font-weight: normal;&quot;&gt;الهدف الثالث&lt;/font&gt;" style="text;strokeColor=none;fillColor=none;html=1;fontSize=24;fontStyle=1;verticalAlign=middle;align=right;" vertex="1" parent="1">
                    <mxGeometry x="220" y="1870" width="110" height="20" as="geometry"/>
                </mxCell>
                <mxCell id="11" value="&lt;font style=&quot;font-size: 16px;&quot; color=&quot;#000000&quot;&gt;الدروس&lt;/font&gt;" style="text;strokeColor=none;fillColor=none;html=1;fontSize=24;fontStyle=1;verticalAlign=middle;align=center;" vertex="1" parent="1">
                    <mxGeometry x="240.5" y="1915" width="100" height="20" as="geometry"/>
                </mxCell>
                <mxCell id="12" value="الدرس الأول" style="whiteSpace=wrap;html=1;fontSize=14;fontColor=#808080;fillColor=#FFFFFF;" vertex="1" parent="1">
                    <mxGeometry x="270" y="1950" width="60" height="40" as="geometry"/>
                </mxCell>
                <mxCell id="13" value="الدرس الثاني" style="whiteSpace=wrap;html=1;fontSize=14;fontColor=#808080;fillColor=#FFFFFF;" vertex="1" parent="1">
                    <mxGeometry x="190" y="1950" width="60" height="40" as="geometry"/>
                </mxCell>
            </root>
        </mxGraphModel>
    </diagram>
    <diagram id="kT0od8lz3MIX1HD3_c-B" name="steps">
        <mxGraphModel dx="499" dy="427" grid="1" gridSize="10" guides="1" tooltips="1" connect="1" arrows="1" fold="1" page="1" pageScale="1" pageWidth="850" pageHeight="1100" math="0" shadow="0">
            <root>
                <mxCell id="0"/>
                <mxCell id="1" parent="0"/>
                <mxCell id="jWJm5jnZMe2Iu-Ib7dwO-1" value="" style="edgeStyle=none;html=1;strokeWidth=3;fontSize=17;fontColor=#FFFFFF;" edge="1" parent="1" source="jWJm5jnZMe2Iu-Ib7dwO-2" target="jWJm5jnZMe2Iu-Ib7dwO-6">
                    <mxGeometry relative="1" as="geometry"/>
                </mxCell>
                <mxCell id="jWJm5jnZMe2Iu-Ib7dwO-2" value="&lt;span style=&quot;font-size: 21px;&quot;&gt;&lt;b&gt;تحديد البيانات&lt;/b&gt;&lt;/span&gt;" style="rounded=0;whiteSpace=wrap;html=1;fillColor=#000000;fontColor=#ffffff;strokeColor=#006EAF;" vertex="1" parent="1">
                    <mxGeometry x="180" y="130" width="120" height="60" as="geometry"/>
                </mxCell>
                <mxCell id="jWJm5jnZMe2Iu-Ib7dwO-3" value="" style="edgeStyle=none;html=1;strokeWidth=3;fontSize=17;fontColor=#FFFFFF;" edge="1" parent="1" source="jWJm5jnZMe2Iu-Ib7dwO-4" target="jWJm5jnZMe2Iu-Ib7dwO-7">
                    <mxGeometry relative="1" as="geometry"/>
                </mxCell>
                <mxCell id="jWJm5jnZMe2Iu-Ib7dwO-4" value="&lt;span style=&quot;font-size: 21px;&quot;&gt;&lt;b&gt;عمل التنسيقات&lt;/b&gt;&lt;/span&gt;" style="rounded=0;whiteSpace=wrap;html=1;fillColor=#000000;fontColor=#ffffff;strokeColor=#006EAF;" vertex="1" parent="1">
                    <mxGeometry x="180" y="340" width="120" height="60" as="geometry"/>
                </mxCell>
                <mxCell id="jWJm5jnZMe2Iu-Ib7dwO-5" value="" style="edgeStyle=none;html=1;strokeWidth=3;fontSize=17;fontColor=#FFFFFF;" edge="1" parent="1" source="jWJm5jnZMe2Iu-Ib7dwO-6" target="jWJm5jnZMe2Iu-Ib7dwO-4">
                    <mxGeometry relative="1" as="geometry"/>
                </mxCell>
                <mxCell id="jWJm5jnZMe2Iu-Ib7dwO-6" value="&lt;span style=&quot;font-size: 21px;&quot;&gt;&lt;b&gt;تحديد ال&lt;br&gt;widget&lt;br&gt;&lt;/b&gt;&lt;/span&gt;" style="rounded=0;whiteSpace=wrap;html=1;fillColor=#000000;fontColor=#ffffff;strokeColor=#006EAF;" vertex="1" parent="1">
                    <mxGeometry x="180" y="240" width="120" height="60" as="geometry"/>
                </mxCell>
                <mxCell id="jWJm5jnZMe2Iu-Ib7dwO-7" value="&lt;span style=&quot;font-size: 21px;&quot;&gt;&lt;b&gt;إضافة التفاعل&lt;/b&gt;&lt;/span&gt;" style="rounded=0;whiteSpace=wrap;html=1;fillColor=#000000;fontColor=#ffffff;strokeColor=#006EAF;" vertex="1" parent="1">
                    <mxGeometry x="180" y="440" width="120" height="60" as="geometry"/>
                </mxCell>
                <mxCell id="jWJm5jnZMe2Iu-Ib7dwO-8" value="" style="edgeStyle=none;html=1;strokeWidth=3;fontSize=12;fontColor=#FFFFFF;" edge="1" parent="1" source="jWJm5jnZMe2Iu-Ib7dwO-9" target="jWJm5jnZMe2Iu-Ib7dwO-2">
                    <mxGeometry relative="1" as="geometry"/>
                </mxCell>
                <mxCell id="jWJm5jnZMe2Iu-Ib7dwO-9" value="&lt;span style=&quot;font-size: 21px;&quot;&gt;&lt;b&gt;عمل مخطط لتفاعلات الصفحة&lt;/b&gt;&lt;/span&gt;" style="rounded=0;whiteSpace=wrap;html=1;fillColor=#000000;fontColor=#ffffff;strokeColor=#006EAF;" vertex="1" parent="1">
                    <mxGeometry x="180" y="30" width="120" height="60" as="geometry"/>
                </mxCell>
            </root>
        </mxGraphModel>
    </diagram>
    <diagram id="TN5q5wyDiwWI8Nxa68He" name="activity">
        <mxGraphModel dx="499" dy="427" grid="1" gridSize="10" guides="1" tooltips="1" connect="1" arrows="1" fold="1" page="1" pageScale="1" pageWidth="850" pageHeight="1100" math="0" shadow="0">
            <root>
                <mxCell id="0"/>
                <mxCell id="1" parent="0"/>
                <mxCell id="3L91257g8HR0bW2qWaab-1" value="" style="edgeStyle=none;html=1;fontSize=14;fontColor=#808080;strokeWidth=3;" edge="1" parent="1" source="16J2vml6MPE9QUDUdSvl-3" target="16J2vml6MPE9QUDUdSvl-4">
                    <mxGeometry relative="1" as="geometry"/>
                </mxCell>
                <mxCell id="16J2vml6MPE9QUDUdSvl-3" value="&lt;b style=&quot;&quot;&gt;&lt;span style=&quot;font-size: 21px;&quot;&gt;Start Home&lt;/span&gt;&lt;br&gt;&lt;font style=&quot;font-size: 9px;&quot;&gt;(stateless)&lt;/font&gt;&lt;br&gt;&lt;/b&gt;" style="rounded=0;whiteSpace=wrap;html=1;fillColor=#1ba1e2;fontColor=#ffffff;strokeColor=#006EAF;" vertex="1" parent="1">
                    <mxGeometry x="200" y="130" width="120" height="80" as="geometry"/>
                </mxCell>
                <mxCell id="3L91257g8HR0bW2qWaab-3" value="" style="edgeStyle=none;html=1;strokeWidth=3;fontSize=14;fontColor=#808080;" edge="1" parent="1" source="16J2vml6MPE9QUDUdSvl-4" target="3L91257g8HR0bW2qWaab-2">
                    <mxGeometry relative="1" as="geometry"/>
                </mxCell>
                <mxCell id="16J2vml6MPE9QUDUdSvl-4" value="&lt;span style=&quot;font-size: 21px;&quot;&gt;&lt;b&gt;Lessons&lt;/b&gt;&lt;/span&gt;" style="rounded=0;whiteSpace=wrap;html=1;fillColor=#1ba1e2;fontColor=#ffffff;strokeColor=#006EAF;" vertex="1" parent="1">
                    <mxGeometry x="200" y="260" width="120" height="60" as="geometry"/>
                </mxCell>
                <mxCell id="16J2vml6MPE9QUDUdSvl-5" value="&lt;span style=&quot;font-size: 21px;&quot;&gt;&lt;b&gt;Activity&lt;/b&gt;&lt;/span&gt;" style="rounded=0;whiteSpace=wrap;html=1;fillColor=#a20025;fontColor=#ffffff;strokeColor=#6F0000;" vertex="1" parent="1">
                    <mxGeometry x="200" y="30" width="120" height="60" as="geometry"/>
                </mxCell>
                <mxCell id="3L91257g8HR0bW2qWaab-5" value="" style="edgeStyle=none;html=1;strokeWidth=3;fontSize=14;fontColor=#808080;" edge="1" parent="1" source="3L91257g8HR0bW2qWaab-2" target="3L91257g8HR0bW2qWaab-4">
                    <mxGeometry relative="1" as="geometry"/>
                </mxCell>
                <mxCell id="3L91257g8HR0bW2qWaab-2" value="&lt;span style=&quot;font-size: 21px;&quot;&gt;&lt;b&gt;Lesson&lt;/b&gt;&lt;/span&gt;" style="rounded=0;whiteSpace=wrap;html=1;fillColor=#1ba1e2;fontColor=#ffffff;strokeColor=#006EAF;" vertex="1" parent="1">
                    <mxGeometry x="200" y="380" width="120" height="60" as="geometry"/>
                </mxCell>
                <mxCell id="3L91257g8HR0bW2qWaab-4" value="&lt;span style=&quot;font-size: 21px;&quot;&gt;&lt;b&gt;go Lesson page&lt;/b&gt;&lt;/span&gt;" style="rounded=0;whiteSpace=wrap;html=1;fillColor=#1ba1e2;fontColor=#ffffff;strokeColor=#006EAF;" vertex="1" parent="1">
                    <mxGeometry x="200" y="490" width="120" height="60" as="geometry"/>
                </mxCell>
                <mxCell id="16J2vml6MPE9QUDUdSvl-11" value="&lt;font size=&quot;1&quot; style=&quot;&quot;&gt;&lt;b style=&quot;font-size: 12px;&quot;&gt;lesson Btn&lt;/b&gt;&lt;/font&gt;" style="rounded=0;whiteSpace=wrap;html=1;fillColor=#d80073;fontColor=#ffffff;strokeColor=#A50040;" vertex="1" parent="1">
                    <mxGeometry x="227.5" y="450" width="65" height="20" as="geometry"/>
                </mxCell>
            </root>
        </mxGraphModel>
    </diagram>
    <diagram id="6o5rZDun-syp34f6k7WH" name="widgets">
        <mxGraphModel dx="499" dy="427" grid="1" gridSize="10" guides="1" tooltips="1" connect="1" arrows="1" fold="1" page="1" pageScale="1" pageWidth="850" pageHeight="1100" math="0" shadow="0">
            <root>
                <mxCell id="0"/>
                <mxCell id="1" parent="0"/>
                <mxCell id="P0zOC1BxexMgjfKHU7Mn-3" value="" style="edgeStyle=none;html=1;strokeWidth=3;fontSize=14;fontColor=#808080;" edge="1" parent="1" source="P0zOC1BxexMgjfKHU7Mn-1" target="P0zOC1BxexMgjfKHU7Mn-2">
                    <mxGeometry relative="1" as="geometry"/>
                </mxCell>
                <mxCell id="P0zOC1BxexMgjfKHU7Mn-1" value="&lt;span style=&quot;font-size: 21px;&quot;&gt;&lt;b&gt;Home&lt;/b&gt;&lt;/span&gt;" style="rounded=0;whiteSpace=wrap;html=1;fillColor=#1ba1e2;fontColor=#ffffff;strokeColor=#006EAF;" vertex="1" parent="1">
                    <mxGeometry x="250" y="30" width="120" height="60" as="geometry"/>
                </mxCell>
                <mxCell id="a0y2H-Ac-sZ6R7pIn-Fx-2" value="" style="edgeStyle=none;html=1;strokeWidth=3;fontSize=14;fontColor=#808080;" edge="1" parent="1" source="P0zOC1BxexMgjfKHU7Mn-2" target="a0y2H-Ac-sZ6R7pIn-Fx-1">
                    <mxGeometry relative="1" as="geometry"/>
                </mxCell>
                <mxCell id="P0zOC1BxexMgjfKHU7Mn-2" value="&lt;span style=&quot;font-size: 21px;&quot;&gt;&lt;b&gt;Scaffold&lt;/b&gt;&lt;/span&gt;" style="rounded=0;whiteSpace=wrap;html=1;fillColor=#1ba1e2;fontColor=#ffffff;strokeColor=#006EAF;" vertex="1" parent="1">
                    <mxGeometry x="250" y="110" width="120" height="60" as="geometry"/>
                </mxCell>
                <mxCell id="a0y2H-Ac-sZ6R7pIn-Fx-4" value="" style="edgeStyle=none;html=1;strokeWidth=3;fontSize=14;fontColor=#808080;" edge="1" parent="1" source="a0y2H-Ac-sZ6R7pIn-Fx-1" target="a0y2H-Ac-sZ6R7pIn-Fx-3">
                    <mxGeometry relative="1" as="geometry"/>
                </mxCell>
                <mxCell id="EkOOZC0z7g64oAiqDCxL-2" value="" style="edgeStyle=none;html=1;strokeWidth=3;fontSize=14;fontColor=#808080;" edge="1" parent="1" source="a0y2H-Ac-sZ6R7pIn-Fx-1" target="EkOOZC0z7g64oAiqDCxL-1">
                    <mxGeometry relative="1" as="geometry"/>
                </mxCell>
                <mxCell id="EkOOZC0z7g64oAiqDCxL-4" value="" style="edgeStyle=none;html=1;strokeWidth=3;fontSize=14;fontColor=#808080;" edge="1" parent="1" source="a0y2H-Ac-sZ6R7pIn-Fx-1" target="EkOOZC0z7g64oAiqDCxL-3">
                    <mxGeometry relative="1" as="geometry"/>
                </mxCell>
                <mxCell id="EkOOZC0z7g64oAiqDCxL-6" value="" style="edgeStyle=none;html=1;strokeWidth=3;fontSize=14;fontColor=#808080;" edge="1" parent="1" source="a0y2H-Ac-sZ6R7pIn-Fx-1" target="EkOOZC0z7g64oAiqDCxL-3">
                    <mxGeometry relative="1" as="geometry"/>
                </mxCell>
                <mxCell id="EkOOZC0z7g64oAiqDCxL-7" value="" style="edgeStyle=none;html=1;strokeWidth=3;fontSize=14;fontColor=#808080;" edge="1" parent="1" source="a0y2H-Ac-sZ6R7pIn-Fx-1" target="EkOOZC0z7g64oAiqDCxL-5">
                    <mxGeometry relative="1" as="geometry"/>
                </mxCell>
                <mxCell id="a0y2H-Ac-sZ6R7pIn-Fx-1" value="&lt;font color=&quot;#121111&quot; size=&quot;1&quot; style=&quot;&quot;&gt;&lt;b style=&quot;font-size: 17px;&quot;&gt;ListView&lt;/b&gt;&lt;/font&gt;" style="rounded=0;whiteSpace=wrap;html=1;fillColor=#00FF80;fontColor=#ffffff;strokeColor=#2D7600;" vertex="1" parent="1">
                    <mxGeometry x="250" y="190" width="120" height="60" as="geometry"/>
                </mxCell>
                <mxCell id="a0y2H-Ac-sZ6R7pIn-Fx-3" value="&lt;span style=&quot;font-size: 21px;&quot;&gt;&lt;b&gt;MyAppBar&lt;/b&gt;&lt;/span&gt;" style="rounded=0;whiteSpace=wrap;html=1;fillColor=#1ba1e2;fontColor=#ffffff;strokeColor=#006EAF;" vertex="1" parent="1">
                    <mxGeometry x="390" y="190" width="120" height="60" as="geometry"/>
                </mxCell>
                <mxCell id="EkOOZC0z7g64oAiqDCxL-1" value="&lt;span style=&quot;font-size: 21px;&quot;&gt;&lt;b&gt;Overview&lt;/b&gt;&lt;/span&gt;" style="rounded=0;whiteSpace=wrap;html=1;fillColor=#1ba1e2;fontColor=#ffffff;strokeColor=#006EAF;" vertex="1" parent="1">
                    <mxGeometry x="330" y="280" width="120" height="60" as="geometry"/>
                </mxCell>
                <mxCell id="EkOOZC0z7g64oAiqDCxL-3" value="&lt;span style=&quot;font-size: 21px;&quot;&gt;&lt;b&gt;Targets&lt;/b&gt;&lt;/span&gt;" style="rounded=0;whiteSpace=wrap;html=1;fillColor=#1ba1e2;fontColor=#ffffff;strokeColor=#006EAF;" vertex="1" parent="1">
                    <mxGeometry x="180" y="280" width="120" height="60" as="geometry"/>
                </mxCell>
                <mxCell id="EkOOZC0z7g64oAiqDCxL-5" value="&lt;span style=&quot;font-size: 21px;&quot;&gt;&lt;b&gt;LessonsSection&lt;/b&gt;&lt;/span&gt;" style="rounded=0;whiteSpace=wrap;html=1;fillColor=#1ba1e2;fontColor=#ffffff;strokeColor=#006EAF;" vertex="1" parent="1">
                    <mxGeometry x="40" y="190" width="180" height="60" as="geometry"/>
                </mxCell>
            </root>
        </mxGraphModel>
    </diagram>
    <diagram id="zq-tP8kdyQuL9BB-BE6J" name="MyAppBar">
        <mxGraphModel dx="532" dy="313" grid="1" gridSize="10" guides="1" tooltips="1" connect="1" arrows="1" fold="1" page="1" pageScale="1" pageWidth="850" pageHeight="1100" math="0" shadow="0">
            <root>
                <mxCell id="0"/>
                <mxCell id="1" parent="0"/>
                <mxCell id="bsgrZKp_MVli3AShx-Cv-2" value="" style="edgeStyle=none;html=1;strokeWidth=3;fontSize=14;fontColor=#808080;" edge="1" parent="1" source="erzYWecxYyXJk2uUzxKb-1" target="bsgrZKp_MVli3AShx-Cv-1">
                    <mxGeometry relative="1" as="geometry"/>
                </mxCell>
                <mxCell id="erzYWecxYyXJk2uUzxKb-1" value="&lt;span style=&quot;font-size: 21px;&quot;&gt;&lt;b&gt;MyAppBar&lt;/b&gt;&lt;/span&gt;" style="rounded=0;whiteSpace=wrap;html=1;fillColor=#1ba1e2;fontColor=#ffffff;strokeColor=#006EAF;" vertex="1" parent="1">
                    <mxGeometry x="210" y="40" width="120" height="60" as="geometry"/>
                </mxCell>
                <mxCell id="bsgrZKp_MVli3AShx-Cv-4" value="" style="edgeStyle=none;html=1;strokeWidth=3;fontSize=14;fontColor=#808080;" edge="1" parent="1" source="bsgrZKp_MVli3AShx-Cv-1" target="bsgrZKp_MVli3AShx-Cv-3">
                    <mxGeometry relative="1" as="geometry"/>
                </mxCell>
                <mxCell id="bsgrZKp_MVli3AShx-Cv-1" value="&lt;font color=&quot;#121111&quot; size=&quot;1&quot; style=&quot;&quot;&gt;&lt;b style=&quot;font-size: 17px;&quot;&gt;Container&lt;/b&gt;&lt;/font&gt;" style="rounded=0;whiteSpace=wrap;html=1;fillColor=#00FF80;fontColor=#ffffff;strokeColor=#2D7600;" vertex="1" parent="1">
                    <mxGeometry x="210" y="120" width="120" height="60" as="geometry"/>
                </mxCell>
                <mxCell id="6scbBP3nTho1pLybeIG3-3" style="edgeStyle=none;html=1;exitX=1;exitY=1;exitDx=0;exitDy=0;strokeWidth=3;fontSize=14;fontColor=#808080;" edge="1" parent="1" source="bsgrZKp_MVli3AShx-Cv-3" target="6scbBP3nTho1pLybeIG3-1">
                    <mxGeometry relative="1" as="geometry"/>
                </mxCell>
                <mxCell id="6scbBP3nTho1pLybeIG3-4" style="edgeStyle=none;html=1;exitX=0;exitY=1;exitDx=0;exitDy=0;entryX=0.75;entryY=0;entryDx=0;entryDy=0;strokeWidth=3;fontSize=14;fontColor=#808080;" edge="1" parent="1" source="bsgrZKp_MVli3AShx-Cv-3" target="6scbBP3nTho1pLybeIG3-2">
                    <mxGeometry relative="1" as="geometry"/>
                </mxCell>
                <mxCell id="bsgrZKp_MVli3AShx-Cv-3" value="&lt;font color=&quot;#121111&quot; size=&quot;1&quot; style=&quot;&quot;&gt;&lt;b style=&quot;font-size: 17px;&quot;&gt;Row&lt;/b&gt;&lt;/font&gt;" style="rounded=0;whiteSpace=wrap;html=1;fillColor=#00FF80;fontColor=#ffffff;strokeColor=#2D7600;" vertex="1" parent="1">
                    <mxGeometry x="210" y="200" width="120" height="60" as="geometry"/>
                </mxCell>
                <mxCell id="6scbBP3nTho1pLybeIG3-1" value="&lt;font size=&quot;1&quot; style=&quot;&quot;&gt;&lt;b style=&quot;font-size: 17px;&quot;&gt;Text&lt;/b&gt;&lt;/font&gt;" style="rounded=0;whiteSpace=wrap;html=1;fillColor=#d80073;fontColor=#ffffff;strokeColor=#A50040;" vertex="1" parent="1">
                    <mxGeometry x="320" y="280" width="120" height="60" as="geometry"/>
                </mxCell>
                <mxCell id="6scbBP3nTho1pLybeIG3-2" value="&lt;font size=&quot;1&quot; style=&quot;&quot;&gt;&lt;b style=&quot;font-size: 17px;&quot;&gt;Icon&lt;/b&gt;&lt;/font&gt;" style="rounded=0;whiteSpace=wrap;html=1;fillColor=#d80073;fontColor=#ffffff;strokeColor=#A50040;" vertex="1" parent="1">
                    <mxGeometry x="100" y="280" width="120" height="60" as="geometry"/>
                </mxCell>
            </root>
        </mxGraphModel>
    </diagram>
</mxfile>